<svg xmlns="http://www.w3.org/2000/svg" version="1.1" xmlns:xlink="http://www.w3.org/1999/xlink" xmlns:svgjs="http://svgjs.com/svgjs" width="1920" height="1080" preserveAspectRatio="none" viewBox="0 0 1920 1080"><g mask="url(&quot;#SvgjsMask1018&quot;)" fill="none"><rect width="1920" height="1080" x="0" y="0" fill="#0e2a47"></rect><path d="M370.56 918.12 a241.83 241.83 0 1 0 483.66 0 a241.83 241.83 0 1 0 -483.66 0z" fill="rgba(28, 83, 142, 0.4)" class="triangle-float2"></path><path d="M579.33 579.45 a258.17 258.17 0 1 0 516.34 0 a258.17 258.17 0 1 0 -516.34 0z" fill="rgba(28, 83, 142, 0.4)" class="triangle-float1"></path><path d="M-23.79 731.79 a241.88 241.88 0 1 0 483.76 0 a241.88 241.88 0 1 0 -483.76 0z" fill="rgba(28, 83, 142, 0.4)" class="triangle-float1"></path><path d="M1301.97 706.95 a316.41 316.41 0 1 0 632.82 0 a316.41 316.41 0 1 0 -632.82 0z" fill="rgba(28, 83, 142, 0.4)" class="triangle-float2"></path><path d="M1015.94 610.75 a192.92 192.92 0 1 0 385.84 0 a192.92 192.92 0 1 0 -385.84 0z" fill="rgba(28, 83, 142, 0.4)" class="triangle-float3"></path><path d="M547.87 797.51 a198.16 198.16 0 1 0 396.32 0 a198.16 198.16 0 1 0 -396.32 0z" fill="rgba(28, 83, 142, 0.4)" class="triangle-float3"></path></g><defs><mask id="SvgjsMask1018"><rect width="1920" height="1080" fill="#ffffff"></rect></mask><style>
            @keyframes float1 {
                0%{transform: translate(0, 0)}
                50%{transform: translate(-10px, 0)}
                100%{transform: translate(0, 0)}
            }

            .triangle-float1 {
                animation: float1 5s infinite;
            }

            @keyframes float2 {
                0%{transform: translate(0, 0)}
                50%{transform: translate(-5px, -5px)}
                100%{transform: translate(0, 0)}
            }

            .triangle-float2 {
                animation: float2 4s infinite;
            }

            @keyframes float3 {
                0%{transform: translate(0, 0)}
                50%{transform: translate(0, -10px)}
                100%{transform: translate(0, 0)}
            }

            .triangle-float3 {
                animation: float3 6s infinite;
            }
        </style></defs></svg>