<svg xmlns="http://www.w3.org/2000/svg" version="1.1" xmlns:xlink="http://www.w3.org/1999/xlink" xmlns:svgjs="http://svgjs.com/svgjs" width="1920" height="1080" preserveAspectRatio="none" viewBox="0 0 1920 1080"><g mask="url(&quot;#SvgjsMask1039&quot;)" fill="none"><path d="M76 978L75 633" stroke-width="6" stroke="url(#SvgjsLinearGradient1040)" stroke-linecap="round" class="Down"></path><path d="M271 342L270 -31" stroke-width="6" stroke="url(#SvgjsLinearGradient1040)" stroke-linecap="round" class="Down"></path><path d="M109 1079L108 759" stroke-width="8" stroke="url(#SvgjsLinearGradient1040)" stroke-linecap="round" class="Down"></path><path d="M203 256L202 538" stroke-width="8" stroke="url(#SvgjsLinearGradient1040)" stroke-linecap="round" class="Down"></path><path d="M1662 10L1661 -724" stroke-width="8" stroke="url(#SvgjsLinearGradient1041)" stroke-linecap="round" class="Up"></path><path d="M267 778L266 461" stroke-width="10" stroke="url(#SvgjsLinearGradient1041)" stroke-linecap="round" class="Up"></path><path d="M379 798L378 61" stroke-width="8" stroke="url(#SvgjsLinearGradient1040)" stroke-linecap="round" class="Down"></path><path d="M292 804L291 218" stroke-width="10" stroke="url(#SvgjsLinearGradient1040)" stroke-linecap="round" class="Down"></path><path d="M59 835L58 1404" stroke-width="8" stroke="url(#SvgjsLinearGradient1041)" stroke-linecap="round" class="Up"></path><path d="M1142 35L1141 608" stroke-width="6" stroke="url(#SvgjsLinearGradient1041)" stroke-linecap="round" class="Up"></path><path d="M547 49L546 523" stroke-width="6" stroke="url(#SvgjsLinearGradient1040)" stroke-linecap="round" class="Down"></path><path d="M1850 1023L1849 318" stroke-width="10" stroke="url(#SvgjsLinearGradient1040)" stroke-linecap="round" class="Down"></path><path d="M329 492L328 -36" stroke-width="6" stroke="url(#SvgjsLinearGradient1041)" stroke-linecap="round" class="Up"></path><path d="M668 949L667 298" stroke-width="10" stroke="url(#SvgjsLinearGradient1041)" stroke-linecap="round" class="Up"></path><path d="M558 500L557 178" stroke-width="6" stroke="url(#SvgjsLinearGradient1041)" stroke-linecap="round" class="Up"></path><path d="M1146 731L1145 1455" stroke-width="8" stroke="url(#SvgjsLinearGradient1040)" stroke-linecap="round" class="Down"></path><path d="M667 373L666 -57" stroke-width="6" stroke="url(#SvgjsLinearGradient1041)" stroke-linecap="round" class="Up"></path><path d="M168 269L167 822" stroke-width="6" stroke="url(#SvgjsLinearGradient1040)" stroke-linecap="round" class="Down"></path><path d="M1234 1011L1233 444" stroke-width="8" stroke="url(#SvgjsLinearGradient1040)" stroke-linecap="round" class="Down"></path><path d="M482 847L481 1631" stroke-width="8" stroke="url(#SvgjsLinearGradient1041)" stroke-linecap="round" class="Up"></path><path d="M52 86L51 -586" stroke-width="10" stroke="url(#SvgjsLinearGradient1040)" stroke-linecap="round" class="Down"></path><path d="M803 405L802 955" stroke-width="6" stroke="url(#SvgjsLinearGradient1041)" stroke-linecap="round" class="Up"></path><path d="M129 687L128 1223" stroke-width="6" stroke="url(#SvgjsLinearGradient1040)" stroke-linecap="round" class="Down"></path><path d="M1415 286L1414 711" stroke-width="8" stroke="url(#SvgjsLinearGradient1041)" stroke-linecap="round" class="Up"></path><path d="M530 472L529 -107" stroke-width="6" stroke="url(#SvgjsLinearGradient1040)" stroke-linecap="round" class="Down"></path><path d="M1907 179L1906 -487" stroke-width="6" stroke="url(#SvgjsLinearGradient1041)" stroke-linecap="round" class="Up"></path><path d="M865 561L864 1128" stroke-width="6" stroke="url(#SvgjsLinearGradient1040)" stroke-linecap="round" class="Down"></path><path d="M900 1019L899 1331" stroke-width="8" stroke="url(#SvgjsLinearGradient1041)" stroke-linecap="round" class="Up"></path><path d="M378 624L377 -144" stroke-width="10" stroke="url(#SvgjsLinearGradient1041)" stroke-linecap="round" class="Up"></path><path d="M449 370L448 -186" stroke-width="8" stroke="url(#SvgjsLinearGradient1041)" stroke-linecap="round" class="Up"></path><path d="M763 538L762 1166" stroke-width="8" stroke="url(#SvgjsLinearGradient1041)" stroke-linecap="round" class="Up"></path><path d="M572 863L571 78" stroke-width="10" stroke="url(#SvgjsLinearGradient1041)" stroke-linecap="round" class="Up"></path><path d="M196 269L195 732" stroke-width="8" stroke="url(#SvgjsLinearGradient1041)" stroke-linecap="round" class="Up"></path><path d="M730 515L729 1093" stroke-width="6" stroke="url(#SvgjsLinearGradient1040)" stroke-linecap="round" class="Down"></path><path d="M581 379L580 -43" stroke-width="8" stroke="url(#SvgjsLinearGradient1041)" stroke-linecap="round" class="Up"></path><path d="M1159 683L1158 331" stroke-width="8" stroke="url(#SvgjsLinearGradient1041)" stroke-linecap="round" class="Up"></path><path d="M946 315L945 -424" stroke-width="6" stroke="url(#SvgjsLinearGradient1040)" stroke-linecap="round" class="Down"></path><path d="M876 666L875 1422" stroke-width="6" stroke="url(#SvgjsLinearGradient1040)" stroke-linecap="round" class="Down"></path><path d="M207 611L206 -28" stroke-width="10" stroke="url(#SvgjsLinearGradient1040)" stroke-linecap="round" class="Down"></path><path d="M1592 248L1591 1058" stroke-width="8" stroke="url(#SvgjsLinearGradient1040)" stroke-linecap="round" class="Down"></path><path d="M628 332L627 -384" stroke-width="6" stroke="url(#SvgjsLinearGradient1040)" stroke-linecap="round" class="Down"></path><path d="M1423 483L1422 945" stroke-width="10" stroke="url(#SvgjsLinearGradient1040)" stroke-linecap="round" class="Down"></path><path d="M768 160L767 -512" stroke-width="6" stroke="url(#SvgjsLinearGradient1040)" stroke-linecap="round" class="Down"></path><path d="M585 1073L584 291" stroke-width="6" stroke="url(#SvgjsLinearGradient1041)" stroke-linecap="round" class="Up"></path><path d="M577 156L576 -199" stroke-width="8" stroke="url(#SvgjsLinearGradient1041)" stroke-linecap="round" class="Up"></path><path d="M1725 427L1724 -124" stroke-width="6" stroke="url(#SvgjsLinearGradient1040)" stroke-linecap="round" class="Down"></path><path d="M1204 875L1203 1428" stroke-width="8" stroke="url(#SvgjsLinearGradient1041)" stroke-linecap="round" class="Up"></path><path d="M1221 979L1220 1255" stroke-width="10" stroke="url(#SvgjsLinearGradient1040)" stroke-linecap="round" class="Down"></path></g><defs><mask id="SvgjsMask1039"><rect width="1920" height="1080" fill="#ffffff"></rect></mask><linearGradient x1="0%" y1="0%" x2="0%" y2="100%" id="SvgjsLinearGradient1040"><stop stop-color="rgba(255, 0, 0, 0)" offset="0"></stop><stop stop-color="rgba(255, 0, 0, 1)" offset="1"></stop></linearGradient><linearGradient x1="0%" y1="100%" x2="0%" y2="0%" id="SvgjsLinearGradient1041"><stop stop-color="rgba(255, 0, 0, 0)" offset="0"></stop><stop stop-color="rgba(255, 0, 0, 1)" offset="1"></stop></linearGradient></defs></svg>