<svg xmlns="http://www.w3.org/2000/svg" version="1.1" xmlns:xlink="http://www.w3.org/1999/xlink" xmlns:svgjs="http://svgjs.com/svgjs" width="1920" height="1080" preserveAspectRatio="none" viewBox="0 0 1920 1080"><g mask="url(&quot;#SvgjsMask1016&quot;)" fill="none"><rect width="1920" height="1080" x="0" y="0" fill="#0e2a47"></rect><path d="M0,562.865C112.8,565.736,225.524,558.01,327.3,509.288C438.071,456.259,535.187,378.021,601.732,274.802C675.016,161.13,754.741,27.481,722.619,-103.897C690.63,-234.728,533.518,-284.241,441.091,-382.207C353.82,-474.708,318.183,-632.628,194.782,-663.367C71.03,-694.194,-36.997,-577.058,-155.891,-530.915C-262.668,-489.474,-380.85,-479.692,-468.491,-405.95C-564.888,-324.841,-641.639,-218.883,-672.038,-96.625C-704.147,32.509,-711.056,179.392,-642.373,293.362C-575.31,404.643,-436.575,442.632,-316.766,492.897C-214.991,535.596,-110.333,560.057,0,562.865" fill="#0b2239"></path><path d="M1920 2022.255C2092.777 2049.325 2267.443 1933.47 2385.677 1804.607 2493.529 1687.059 2460.402 1502.143 2529.249 1358.2350000000001 2599.995 1210.358 2782.9719999999998 1118.238 2792.339 954.577 2801.935 786.909 2686.781 637.7919999999999 2577.795 510.01700000000005 2468.201 381.53 2337.782 251.06500000000005 2170.793 225.87699999999995 2008.758 201.43600000000004 1873.384 340.08500000000004 1714.398 379.784 1545.805 421.88199999999995 1333.433 342.347 1210.902 465.563 1089.192 587.953 1131.8609999999999 793.941 1130.899 966.544 1130.0529999999999 1118.28 1129.606 1274.926 1205.658 1406.229 1278.429 1531.868 1429.569 1577.214 1539.5230000000001 1672.034 1672.76 1786.934 1746.182 1995.022 1920 2022.255" fill="#113255"></path></g><defs><mask id="SvgjsMask1016"><rect width="1920" height="1080" fill="#ffffff"></rect></mask></defs></svg>