<svg xmlns="http://www.w3.org/2000/svg" version="1.1" xmlns:xlink="http://www.w3.org/1999/xlink" xmlns:svgjs="http://svgjs.com/svgjs" width="1920" height="1080" preserveAspectRatio="none" viewBox="0 0 1920 1080"><g mask="url(&quot;#SvgjsMask1028&quot;)" fill="none"><rect width="1920" height="1080" x="0" y="0" fill="#0e2a47"></rect><circle r="13.125" cx="659.045" cy="925.515" filter="url(#SvgjsFilter1029)" fill="rgba(255, 255, 255, 1)"></circle><circle r="15.14" cx="1697.64" cy="848.08" filter="url(#SvgjsFilter1029)" fill="rgba(255, 255, 255, 1)"></circle><circle r="16.385" cx="1632.475" cy="671.325" filter="url(#SvgjsFilter1029)" fill="rgba(255, 255, 255, 1)"></circle><circle r="11.49" cx="587.46" cy="571.47" filter="url(#SvgjsFilter1029)" fill="rgba(255, 255, 255, 1)"></circle><circle r="10.01" cx="201.73999999999998" cy="629.89" filter="url(#SvgjsFilter1029)" fill="rgba(255, 255, 255, 1)"></circle><circle r="16.64" cx="955.11" cy="760.8" filter="url(#SvgjsFilter1029)" fill="rgba(255, 255, 255, 1)"></circle><circle r="13.42" cx="740.05" cy="969.4699999999999" filter="url(#SvgjsFilter1029)" fill="rgba(255, 255, 255, 1)"></circle><circle r="16.83" cx="698.0300000000001" cy="183.5" filter="url(#SvgjsFilter1029)" fill="rgba(255, 255, 255, 1)"></circle><circle r="15.34" cx="1398.75" cy="1082.9099999999999" filter="url(#SvgjsFilter1029)" fill="rgba(255, 255, 255, 1)"></circle><circle r="13.3" cx="842.4399999999999" cy="28.75" filter="url(#SvgjsFilter1029)" fill="rgba(255, 255, 255, 1)"></circle><circle r="13.26" cx="30.409999999999997" cy="1078.8" filter="url(#SvgjsFilter1029)" fill="rgba(255, 255, 255, 1)"></circle><circle r="15.38" cx="457.33" cy="1068.99" filter="url(#SvgjsFilter1029)" fill="rgba(255, 255, 255, 1)"></circle><circle r="9.445" cx="212.83499999999998" cy="73.36500000000001" filter="url(#SvgjsFilter1029)" fill="rgba(255, 255, 255, 1)"></circle><circle r="15.86" cx="678.42" cy="908.1" filter="url(#SvgjsFilter1029)" fill="rgba(255, 255, 255, 1)"></circle><circle r="12.42" cx="610.66" cy="25.23" filter="url(#SvgjsFilter1029)" fill="rgba(255, 255, 255, 1)"></circle><circle r="11.295" cx="72.895" cy="359.135" filter="url(#SvgjsFilter1029)" fill="rgba(255, 255, 255, 1)"></circle><circle r="10.385" cx="822.525" cy="573.145" filter="url(#SvgjsFilter1029)" fill="rgba(255, 255, 255, 1)"></circle><circle r="10.015" cx="1332.755" cy="580.915" filter="url(#SvgjsFilter1029)" fill="rgba(255, 255, 255, 1)"></circle><circle r="10.915" cx="699.295" cy="648.765" filter="url(#SvgjsFilter1029)" fill="rgba(255, 255, 255, 1)"></circle><circle r="14.25" cx="1601.16" cy="626.49" filter="url(#SvgjsFilter1029)" fill="rgba(255, 255, 255, 1)"></circle><path d="M788.9 1055.7L763.5 1049.6 773.8 1037.7C775 1036.6 775 1034.2 773.7 1032.3 771.8 1031.3 769.4 1031.3 768.4 1033.2L755 1047.6 735 1043.8 763.1 1013.7C764 1011.8 764.1 1009.5 762.9 1008.3 760.8 1006.6 758.4 1006.6 757.5 1008.4L726.5 1041.8 696.2 1034.9 723.2 1011.5 687.6 1007.9 708.5 984.8 753 994.2C753.2 994.9 753.9 994.7 754.6 994.5 756 994 757.2 992.9 757.5 991.2 757.7 989.6 756.4 987.6 754.5 986.7L714.2 978.3 728.4 963.6 747.7 967.7C748.6 968.2 749.3 967.9 750 967.7 750.7 967.5 751.9 966.3 752.2 964.7 752.5 963 751.1 961.1 749.4 960.9L734.1 957.1 751.4 937.5C753.3 936.1 752.7 934 751.3 932.1 750.1 930.9 747.7 930.8 746.1 932.9L728.5 951.8 723.8 936.9C723.1 934.7 720.5 934 719.1 934.4 717 935.1 716 937 716.7 939.1L722.8 958.3 708.6 973 696.4 934.6C695.8 932.5 693.9 931.5 691.8 932.2 690.3 932.6 688.6 934.7 689.3 936.8L702.9 979.5 682 1002.6 674.9 968 654.2 996.5 644.7 966.7 675 933.6C676.7 931.5 676 929.3 674.8 928.1 673.6 926.9 671.3 926.9 669.4 928.3L642.3 958.8 636.2 939.6 649.4 924.5C651.3 923.1 651.3 920.7 649.2 919 648 917.8 645.7 917.8 644 919.9L633.4 931.1 625.5 906.2C624.9 904 623 903.1 620.9 903.7S617.7 906.3 618.4 908.4L626.3 933.3 611.3 930.3C608.7 929.5 606.8 930.9 606.5 932.6 605.8 935.2 607.1 937.1 609.5 937.1L629 941.9 635.1 961.1 595.4 951.8C593 951.7 591.1 953.1 590.8 954.8 590.1 957.4 591.5 959.3 593.8 959.3L637.6 968.9 647.1 998.8 613.7 987.5 627.9 1019.8 597.5 1013 584 970.3C583.3 968.1 580.7 967.4 579.3 967.8 577.2 968.5 576.2 970.4 576.9 972.5L589.3 1011.7 569.1 1007.1 563 987.9C562.3 985.8 560.4 984.8 558.3 985.5 556.8 985.9 555.2 988 555.8 990.2L560.6 1005.1 535.4 999.8C532.8 999 530.9 1000.4 530.9 1002.8 530.6 1004.4 531.3 1006.6 533.6 1006.6L559.1 1012.6 548.7 1024.5C547.5 1025.7 547.5 1028.1 548.7 1029.3 549.8 1030.4 551.5 1030.7 552.2 1030.5 552.9 1030.3 553.6 1030 554.1 1029.1L567.5 1014.7 587.5 1018.5 559.5 1048.5C558.5 1050.4 558.5 1052.8 559.6 1054 560.8 1055.2 562.4 1055.4 563.9 1055 564.6 1054.8 564.6 1054.8 565.1 1053.8L596 1020.5 626.4 1027.3 599.3 1050.8 635 1054.4 614.1 1077.4 569.6 1068C567.9 1067.8 565.8 1068.5 565 1071.1 564.8 1072.7 566.2 1074.6 568.1 1075.6L608.3 1084 594.2 1098.6 574.9 1094.6C573 1093.6 571.1 1095 570.3 1097.6 570.1 1099.2 571.5 1101.1 573.3 1102.1L588.4 1105.2 571.1 1124.7C569.2 1126.1 569.9 1128.3 571.3 1130.2 572.2 1130.7 573.9 1130.9 574.6 1130.7 575.3 1130.5 576 1130.2 576.5 1129.3L594 1110.4 598.7 1125.4C599.4 1127.5 602 1128.3 603.4 1127.8L603.4 1127.8C605.6 1127.1 606.5 1125.3 605.9 1123.1L599.8 1103.9 613.9 1089.2 626.1 1127.7C626.8 1129.8 628.6 1130.8 630.8 1130.1S633.9 1127.5 633.2 1125.4L619.7 1082.7 640.5 1059.6 647.6 1094.2 668.3 1065.7 677.8 1095.6 647.6 1128.7C645.9 1130.8 646.6 1132.9 647.7 1134.1 648.9 1135.3 651.2 1135.4 653.2 1134L680.5 1104.1 686.4 1122.6 673.2 1137.8C671.3 1139.2 671.2 1141.6 673.3 1143.2 674.5 1144.4 676.9 1144.5 678.8 1143.1L689.1 1131.2 697 1156.1C697.7 1158.2 699.5 1159.2 701.7 1158.5S704.8 1156 704.1 1153.8L696.2 1128.9 711.3 1132C712.2 1132.5 712.9 1132.2 713.6 1132 715.1 1131.6 715.5 1130.6 716 1129.7 716.8 1127.1 715.4 1125.2 713 1125.2L693.5 1120.4 687.4 1101.2 727.2 1110.5C727.9 1110.3 728.6 1110 729.3 1109.8 730.7 1109.4 731.2 1108.4 731.7 1107.5 732.5 1104.9 731.1 1103 728.7 1103L684.9 1093.3 675.4 1063.5 708.8 1074.8 694.6 1042.5 725 1049.3 738.5 1092C739.2 1094.1 741.8 1094.9 743.2 1094.4 745.4 1093.8 746.3 1091.9 745.7 1089.7L733.5 1051.3 753.5 1055.1 759.6 1074.4C760.3 1076.5 762.1 1077.5 764.3 1076.8S767.4 1074.2 766.7 1072.1L762 1057.2 787.1 1062.5C788.1 1063 788.8 1062.7 789.5 1062.5 790.2 1062.3 791.4 1061.1 791.7 1059.5 791.9 1057.8 791.3 1055.7 788.9 1055.7ZM695.5 1062.6L668.3 1053.2 651.4 1076.6 645.4 1047.9 617.1 1045.1 638.4 1025.8 627 999.7 654.3 1009.1 671.1 985.7 676.9 1013.6 705.4 1017.1 683.9 1035.7 695.5 1062.6Z" fill="rgba(255, 255, 255, 1)"></path><path d="M976.6 693L974.8 663.2 991.2 670.6C992.9 671.5 995.5 670.8 997.1 668.6 997.5 666.2 996.8 663.7 994.4 663.2L974.2 653.3 971.7 630.2 1013.9 650.9C1016.3 651.3 1018.9 650.6 1019.8 648.9 1020.9 646 1020.2 643.5 1017.8 643L971.1 620.2 968.5 584.8 1003.1 606.5 995.2 566.4 1027.4 581.6 1031.9 633.3C1031.2 633.8 1031.7 634.5 1032.1 635.2 1033.1 636.6 1034.8 637.6 1036.7 637.3 1038.6 637 1040.2 634.9 1040.6 632.5L1036.4 585.7 1057.2 596.3 1059.1 618.8C1058.9 620 1059.4 620.7 1059.9 621.4 1060.4 622.1 1062 623 1063.9 622.7 1065.8 622.5 1067.4 620.3 1067.2 618.4L1066.2 600.4 1093.4 612.9C1095.5 614.5 1097.6 613 1099.3 610.9 1100.2 609.2 1099.4 606.6 1096.6 605.5L1070.1 592.6 1084.9 582.4C1087 581 1087 577.9 1086 576.5 1084.6 574.4 1082.2 574 1080.1 575.4L1061.1 588.4 1040.3 577.8 1078.3 551.8C1080.4 550.3 1080.9 547.9 1079.4 545.8 1078.5 544.4 1075.6 543.3 1073.5 544.7L1031.3 573.7 999.1 558.5 1034.6 539.3 996.5 526.1 1026.1 505.8 1072.3 527.9C1075.2 529.1 1077.3 527.6 1078.2 526 1079.1 524.3 1078.4 521.7 1076.2 520.1L1033.8 500.5 1052.8 487.5 1073.8 496.9C1075.9 498.5 1078.5 497.8 1079.7 494.9 1080.6 493.3 1079.8 490.7 1077 489.5L1061.3 481.7 1085.9 464.8C1088 463.3 1088.4 461 1087 458.9S1083.2 456.3 1081.1 457.8L1056.4 474.7 1054.8 457.2C1054.7 454.1 1052.6 452.5 1050.7 452.7 1047.6 452.8 1046 454.9 1046.7 457.5L1048 480.5 1029 493.5 1026 446.9C1025.2 444.3 1023.1 442.7 1021.2 443 1018.1 443 1016.5 445.2 1017.2 447.7L1021.3 498.8 991.7 519.1 993.1 478.8 962.4 505.1 959.8 469.6 1002 440.6C1004.1 439.2 1004.1 436.1 1003.1 434.7 1001.6 432.6 999.3 432.1 997.2 433.6L958.5 460.2 956.7 436.5 975.7 423.5C977.8 422 978.3 419.6 976.8 417.5 975.9 416.1 973 415 970.9 416.4L956.1 426.6 953.6 397.3C953.5 394.2 951.4 392.6 948.8 393.3 946.9 393.6 944.8 395 945.5 397.6L947.4 427.4 930.9 420.1C929.3 419.1 926.7 419.9 925.8 421.5 924.8 423.2 925.1 425.1 925.6 425.8 926.1 426.5 926.5 427.2 927.7 427.4L948 437.3 950.4 460.5 908.3 439.8C905.9 439.3 903.3 440.1 902.4 441.8 901.4 443.4 901.7 445.3 902.7 446.7 903.2 447.4 903.2 447.4 904.3 447.6L951 470.4 953.7 505.9 919 484.1 926.9 524.3 894.8 509.1 890.3 457.3C890 455.4 888.6 453.3 885.5 453.3 883.6 453.6 882 455.8 881.5 458.1L885.7 504.9 865 494.3 863 471.9C863.5 469.5 861.3 467.9 858.2 467.9 856.3 468.2 854.7 470.3 854.3 472.7L855.9 490.2 828.8 477.8C826.6 476.2 824.5 477.6 822.9 479.8 822.7 481 822.9 482.9 823.4 483.6 823.9 484.3 824.4 485 825.6 485.2L852 498.1 837.2 508.2C835.1 509.7 835.2 512.7 836.1 514.1L836.1 514.1C837.6 516.3 840 516.7 842.1 515.3L861.1 502.2 881.8 512.8 843.8 538.9C841.7 540.3 841.3 542.7 842.7 544.8S846.5 547.4 848.6 545.9L890.9 516.9 923 532.1 887.5 551.3 925.6 564.5 896.1 584.8 849.8 562.7C847 561.6 844.9 563 843.9 564.7 843 566.4 843.8 569 845.9 570.6L887.6 590.6 869.3 603.2 848.4 593.7C846.2 592.1 843.6 592.9 842.5 595.7 841.5 597.4 842.3 600 844.4 601.6L860.9 609 836.3 625.9C834.1 627.3 833.7 629.7 835.2 631.8S839 634.4 841.1 632.9L865.7 616 867.4 633.5C867.2 634.7 867.6 635.4 868.1 636.1 869.1 637.5 870.3 637.7 871.5 637.9 874.5 637.9 876.2 635.7 875.4 633.1L874.2 610.2 893.1 597.2 896.2 643.7C896.6 644.4 897.1 645.1 897.6 645.9 898.6 647.3 899.8 647.5 900.9 647.7 904 647.7 905.6 645.5 904.9 642.9L900.9 591.8 930.4 571.5 929.1 611.8 959.7 585.6 962.4 621.1 920.1 650C918 651.5 918.1 654.6 919 656 920.5 658.1 922.9 658.5 925 657.1L963 631 965.4 654.1 946.4 667.2C944.3 668.6 943.9 671 945.3 673.1S949.1 675.7 951.2 674.2L966 664.1 968.6 693.4C968.3 694.6 968.8 695.3 969.3 696 969.8 696.7 971.5 697.6 973.3 697.4 975.2 697.1 977.3 695.6 976.6 693ZM938.1 593.2L939.3 560.3 908.1 549.6 937.5 533.6 931.1 501.7 959.3 518.6 984.1 497.4 982.9 530.4 1014 541 985.4 556.6 991 588.9 963.6 571.6 938.1 593.2Z" fill="rgba(255, 255, 255, 1)"></path><path d="M329.6 727.1L359.1 662.9 377.2 655.7 410.8 683.3 407.9 703 350.1 743.9C349.6 744.5 349.6 744.5 349 745.2 347.9 746.5 347.5 748.4 349 750.7 350.9 752.3 352.8 752.7 355.1 751.3L405.5 715.4 400.6 745.6 378.5 761.7C378.5 761.7 378 762.3 378 762.3 376.9 763.7 376.5 765.5 377.9 767.8 378.7 769.5 381.8 769.8 384.1 768.4L398.8 758.5 395 780.7C394.5 782.5 396 784.8 398.5 785.8S403.2 784.1 404.2 781.6L407.5 760 418 774.2C419.4 776.4 422.5 776.7 424.8 775.3 425.8 774 426.8 771.5 425.4 769.2L409.2 747.1 414.7 716.3 450.6 766.7C452 769 455.1 769.3 456.8 768.5 458.4 766.5 459.4 764 458 761.7L416.6 704.6 420 684.2 459.8 669.4 475.6 682.4 483.1 752.6C483.4 755 485.4 756.6 487.8 756.4S491.8 754.1 491.5 751.7L484.8 689.9 509.2 710 511.9 736.4C512.1 738.8 514.1 740.4 517.1 740.7S521.2 738.5 520.9 736.1L518.5 717.5 536.3 732.2C538.3 733.8 541.2 732.9 542.8 730.9 544.5 728.9 544.2 726.5 542.3 724.9L524.4 710.3 542.5 708.5C545.5 708.8 547.1 706.8 546.2 703.9 546 701.5 544 699.9 541.6 700.1L515.2 702.7 490.8 682.7 552.7 677.2C555.1 676.9 557.3 674.3 557 671.9S554.8 667.9 552.4 668.1L481.6 675.1 465.7 662.1 473 619.6 491.8 612.9 555.9 642.3C558.4 643.3 560.7 641.8 562.4 639.8 563.3 637.3 561.9 635 559.9 633.4L503.4 608.1 532.1 597.4 556.9 608.9C559.4 609.8 561.7 608.4 563.3 606.4 563.7 604.5 562.8 601.6 560.3 600.6L544.4 593.1 565.4 585C567.2 584.2 568.1 581.7 567.9 579.3 566.5 577 563.9 576 562.2 576.8L541.2 584.9 548.6 567.8C549 566 548.1 563 546.2 562.6 544.3 561 542.5 561.8 540.9 563.7 540.9 563.7 540.3 564.4 540.3 564.4L528.9 589.2 500.2 599.9 525.5 543.4C526.5 540.9 526.3 538.5 523.8 537.5 521.2 536.6 519.5 537.4 518.4 538.7 517.9 539.3 517.9 539.3 517.9 539.3L488.5 604.7 469.8 611.4 436.2 583.8 439.7 564.6 497.4 522.6C499.2 521.8 499.5 518.7 498.7 517 497.2 514.7 494.2 514.4 491.9 515.8L441.5 551.7 446.4 521.5 468.4 505.4C470.7 504 471.7 501.5 469.7 499.8 468.3 497.6 465.2 497.2 463.5 498L448.8 509.2 452.7 487C452.4 484.6 451 482.3 448.5 481.3 447.3 481.4 445.5 482.2 444.4 483.5 443.9 484.2 443.9 484.2 444 485.4L440.2 507.6 429 492.9C427.6 490.7 425.2 490.9 423.4 491.7 422.9 492.3 422.9 492.3 422.3 493 421.3 494.3 420.8 496.2 421.6 497.9L437.7 520 432.8 550.2 396.9 499.7C395 498.1 392.4 497.2 390.8 499.1 389.6 499.3 389.6 499.3 389.1 499.9 388 501.2 388.2 503.6 389 505.4L431.1 563.1 427.5 582.2 387.2 597.7 372 585.3 365 514.4C364.8 512 362.2 509.8 359.8 510.1S355.2 513 355.4 515.4L362.1 577.2 338.4 557.7 335.1 530.7C334.9 528.3 332.9 526.7 330.5 526.9 328.1 527.2 326.5 529.1 326.7 531.5L328.5 549.6 310.7 534.9C309.4 533.9 306.3 533.6 304.7 535.5 303 537.5 303.4 541.1 304.7 542.2L322.5 556.8 304.5 558.6C303.3 558.7 302.1 558.8 301.6 559.5 300.5 560.8 300.6 562 300.7 563.2 301 565.6 302.9 567.2 305.3 567L332.4 564.9 356.2 584.4 294.3 589.9C293.1 590 292.5 590.7 291.4 592 290.9 592.7 290.4 593.3 290.5 594.5 290.7 596.9 293.4 599.1 295.8 598.9L366.1 592.5 381.3 605 374.5 646.9 355.9 654.8 291 624.8C289.2 624.4 286.8 624.6 285.7 625.9 285.2 626.6 285.2 626.6 285.8 627.1 284.2 629.1 285.1 632.1 287.6 633L344.1 658.4 314.9 669.7 290.1 658.2C288.2 657.8 286.5 658.6 285.4 659.9 285.4 659.9 284.9 660.6 284.9 660.6 283.3 662.6 284.2 665.5 286.7 666.5L303.8 673.9 282.8 682C281.6 682.1 281 682.8 280.5 683.4 279.4 684.8 279 686.6 279.6 687.2 280.5 690.1 283 691.1 285.4 690.8L306.5 682.7 298.9 698.6C298 701.1 298.9 704.1 301.4 705 303.3 705.4 306.2 704.6 306.6 702.7L318.1 677.9 346.8 667.2 321.4 723.7C320.5 726.2 321.9 728.5 323.9 730.1 325.7 730.5 328.7 729.6 329.6 727.1ZM412.8 672.8L387.1 651.7 383.1 648.4 383.8 643.5 389.2 611.5 390.4 605.9 395.1 604.2 425.5 592.7 430.2 591 434.2 594.3 459.9 615.4 463.9 618.6 463.1 623.6 457.8 655.6 457.1 660.5 451.8 662.9 421.5 674.4 416.8 676 412.8 672.8Z" fill="rgba(255, 255, 255, 1)"></path><path d="M1830.4 284L1793.4 341.2 1769 345.9 1781.5 326.7C1783.4 325 1782.3 322.5 1780.6 320.6 1778.9 319.9 1775.8 320.3 1775.1 322.1L1757.4 348.3 1733.5 353.7 1741.4 330.5 1770 316.4C1770 316.4 1770.6 315.8 1770.6 315.8 1771.9 314.7 1772 312.3 1771.5 310.4 1769.8 308.5 1768 307.8 1765.6 308.9L1745.1 319.2 1753 296.1 1813.3 265C1813.3 265 1814.5 265 1814.5 265 1815.8 263.9 1815.9 261.5 1815.4 259.6 1814.3 257.2 1811.3 256.4 1809.4 258.1L1756.6 284.8 1765.4 256.3 1789 244.3C1789 244.3 1789 244.3 1789.7 243.7 1790.9 242.6 1791.6 240.8 1791.1 239 1789.4 237.1 1787.1 235.7 1784.6 236.8L1769 245 1775.6 224.2C1777 221.9 1775.2 220 1773.5 219.3 1771.1 217.9 1768.6 219 1767.9 222L1760.7 242.1 1753.7 226.7C1752 224.8 1749.7 223.4 1747.8 225.1 1745.3 226.2 1744.6 228 1745.7 230.4L1757.7 254.1 1748.3 282 1721 228.5C1720.5 226.7 1717.5 225.9 1715 227 1713.8 228.1 1712.4 230.4 1713.5 232.9L1744.7 293.2 1736.8 316.4 1726.4 295.9C1725.3 293.4 1722.9 293.3 1720.4 294.3 1718.6 294.8 1717.8 297.8 1718.3 299.7L1733.1 327.7 1725.8 351.4 1709.3 333 1711 301.7C1711.1 299.3 1709.4 297.4 1707 297.2 1705.2 296.5 1702.7 298.8 1702.5 301.2L1701.3 324.1 1684.8 305.7 1689.1 237.6C1689.2 235.2 1687.5 233.3 1685.1 233.2 1682.7 233.1 1680.8 234.8 1680.6 237.2L1676.8 296.8 1657.4 275.2 1658.9 248.7C1659 246.3 1657.3 244.4 1654.9 244.2 1652.5 244.1 1650.6 245.8 1650.4 248.2L1648.9 265.7 1634.6 249.8C1632.9 247.9 1630.5 247.7 1628.6 249.4 1626.7 251.2 1626.6 253.6 1628.3 255.5L1642.5 271.4 1625.6 270.4C1623.2 270.3 1621.3 272 1621.2 274.4S1622.8 278.7 1625.2 278.9L1650.5 280.2 1670.4 302.5 1611.4 299.3C1609 299.1 1607.1 300.8 1606.9 303.3 1606.8 305.7 1608.5 307.6 1610.9 307.7L1678.4 311.4 1694.9 329.8 1672 328.6C1669.6 328.4 1667.7 330.1 1667.6 332.5 1667.5 335 1669.2 336.9 1671.6 337L1702.9 338.7 1718.9 356.5 1695.6 361.3 1668.8 344.1C1667 343.4 1663.9 343.8 1663.2 345.6 1661.9 347.9 1662.4 349.8 1664.1 351.7L1683.4 364.2 1660.2 369 1603 332C1600.6 330.7 1598.8 331.2 1596.9 332.9 1595.5 335.3 1596.6 337.7 1597.7 339L1647.9 372 1618.6 377.6 1597 363.7C1595.3 361.8 1592.8 362.9 1590.9 364.6 1590.2 366.4 1590.6 369.4 1593 370.8L1607 380 1586.2 384.9C1583.8 384.8 1582.4 387.1 1582.9 390.2 1583.4 392 1585.7 393.3 1587.6 392.8L1608.9 388.6 1599.1 403.1C1597.7 405.5 1598.8 408 1600.6 408.7 1602.3 410.6 1604.1 410.1 1605.4 408.9 1606 408.4 1606 408.4 1606.7 407.8L1620.5 386.2 1649.9 380.5 1617.5 430.1C1615.6 431.8 1616.7 434.3 1618.4 436.2 1620.2 436.9 1622 436.4 1623.3 435.3 1623.9 434.7 1623.9 434.7 1623.9 434.7L1662.1 377.6 1685.3 372.8 1672.8 392.1C1671.5 394.4 1672 396.2 1673.7 398.1 1675.5 398.8 1677.9 399 1679.1 397.8 1679.8 397.3 1679.8 397.3 1680.4 396.7L1697.6 369.8 1720.8 365.1 1713.5 387.6 1685.5 402.4C1683.1 403.5 1682.3 406.5 1682.8 408.3 1684.5 410.2 1686.8 411.6 1688.8 409.8L1709.3 399.5 1702.6 422.7 1641 453.8C1639.2 454.3 1638.4 457.3 1638.9 459.1 1640.6 461 1643 462.3 1645.5 461.3L1698.3 434.5 1688.9 462.4 1665.9 473.9C1663.4 474.9 1662.7 477.9 1664.4 479.8 1664.9 481.7 1667.2 483 1669.7 481.9L1685.3 473.7 1678.7 494.5C1678 496.3 1679.1 498.7 1681.4 500.1 1682.6 500.2 1684.5 499.6 1685.7 498.5 1685.7 498.5 1686.4 497.9 1687 497.4L1693.6 476.6 1701.8 492.1C1702.3 494 1705.3 494.7 1707.1 494.2 1707.7 493.7 1707.7 493.7 1707.7 493.7 1709.7 492 1709.8 489.5 1708.6 488.3L1697.2 465.3 1706 436.8 1733.3 490.2C1735 492.1 1736.8 492.8 1739.3 491.8 1739.3 491.8 1739.9 491.2 1739.9 491.2 1741.2 490 1741.9 488.3 1740.8 485.8L1710.3 424.9 1717.6 402.3 1727.9 422.9C1729.6 424.8 1732 426.1 1733.9 424.4 1734.5 425 1735.1 424.5 1735.1 424.5 1736.4 423.3 1736.5 420.9 1736 419.1L1721.2 391.1 1729.1 367.9 1745.1 385.7 1743.3 417C1743.2 419.5 1745.5 422 1747.9 422.1 1749.7 421.6 1751.7 419.9 1752.4 418.1L1753 394.6 1769.6 413 1765.9 480.5C1765.7 482.9 1767.5 484.8 1769.9 485 1772.3 485.1 1774.2 483.4 1774.3 481L1777.5 421.9 1797.5 444.2 1796.1 469.5C1796 471.9 1797.7 473.8 1800.1 473.9S1804.4 472.3 1804.5 469.9L1805.4 453.1 1819.7 468.9C1821.4 470.9 1823.8 471 1825.7 469.3 1827.6 467.6 1827.7 465.2 1826 463.3L1811.8 447.4 1829.3 447.7C1830.5 447.8 1831.7 447.8 1832.3 447.3 1833 446.7 1833.7 444.9 1833.7 443.7 1833.9 441.3 1832.2 439.4 1829.8 439.3L1803.8 438.5 1783.9 416.2 1843.6 418.9C1844.8 418.9 1846 419 1846.6 418.4 1847.2 417.9 1847.9 416.1 1848 414.9 1848.1 412.5 1846.4 410.6 1844 410.4L1775.9 407.3 1759.4 388.9 1782.9 390.8C1784.1 390.9 1785.3 389.7 1786 389.2 1786.6 388.6 1787.2 388 1787.3 386.8 1787.4 384.4 1785.2 381.9 1783.3 382.4L1751.4 380 1735.5 362.2 1759.3 356.9 1785.5 374.6C1787.3 375.3 1789.7 375.5 1791 374.3 1791.6 373.8 1791.6 373.8 1791.1 373.1 1793 371.4 1792.5 368.4 1790.2 367L1770.9 354.5 1794.8 349.1 1851.9 387.3C1853.7 388 1855.5 387.5 1856.8 386.4 1857.5 385.8 1857.5 385.8 1857.5 385.8 1858.8 383.5 1858.9 381 1856.6 379.7L1806.4 346.8 1835.7 341.1 1857.3 355C1859.7 356.3 1861.5 355.8 1862.8 354.7 1862.8 354.7 1863.4 354.1 1863.4 354.1 1864.7 351.8 1863.7 349.3 1862.5 348L1847.3 338.7 1868.7 334.4C1869.3 333.9 1870 333.3 1870.6 332.7 1871.3 332.2 1872 330.4 1872 329.2 1870.9 326.7 1869.2 324.8 1866.8 325.9L1845.4 330.2 1855.2 315.6C1856.6 313.2 1855.5 310.8 1854.4 309.5 1852 308.2 1849.5 309.2 1847.6 310.9L1833.8 332.5 1805 338.8 1837.3 289.2C1838.7 286.9 1838.2 283.8 1836.5 283.1 1834.1 281.8 1831.7 281.7 1830.4 284Z" fill="rgba(255, 255, 255, 1)"></path><path d="M1838.2 813.1L1842.6 825.8 1833.7 824.4C1832.8 824.1 1831.6 824.8 1831.1 826.1 1831.2 827.3 1831.9 828.4 1832.8 828.7L1844.5 830.8 1848.5 842.5 1824.8 838.1C1823.3 837.9 1822.1 838.6 1822.2 839.8 1821.7 841.1 1822.4 842.2 1824 842.4L1850.1 847.3 1854 857.8 1837.1 877.7 1827.3 876 1818.2 849.2C1817.8 849 1817.5 848.7 1817.2 848.4 1816.9 848.1 1815.9 847.9 1815.3 847.9 1813.8 848.4 1813.3 849.6 1814 850.8L1822.4 875.2 1810.4 872.9 1805.8 860.5C1806 860.2 1805.7 859.9 1805.4 859.7 1804.7 859.1 1803.8 858.9 1802.9 859.2 1802 859.6 1801.5 860.9 1801.6 862.1L1805.5 872.1 1790.4 869.3C1789.5 869.1 1788.3 869.8 1787.8 871.1 1787.9 872.3 1788.6 873.4 1789.6 873.6L1803.7 876.1 1797.9 883C1797.1 883.9 1797.5 885.4 1798.1 886 1799.1 886.8 1800.6 887 1801.5 886L1808.9 877.2 1820.9 879.6 1805.4 897.8C1804.6 898.8 1804.7 900 1805.7 900.8 1806.7 901.6 1807.9 901.5 1808.7 900.5L1825.8 880.4 1836.2 882 1844.9 906.7 1838.5 914.2 1811.8 909.4C1810.6 908.9 1809.1 909.9 1809.2 911.1 1808.7 912.3 1809.7 913.2 1811 913.7L1835.2 918.1 1827.2 927.5 1815.2 925.1C1814.3 924.9 1812.9 925.9 1812.6 926.9S1813.4 929.2 1814.7 929.7L1823.9 931.4 1814.2 942.8C1813.4 943.8 1813.8 945.2 1814.8 946.1 1815.4 946.6 1817 946.8 1817.8 945.8L1827.5 934.4 1830.9 943.5C1831.3 944.4 1832.3 945.3 1833.8 944.8 1834.6 944.5 1835.4 942.9 1835 942L1830.8 930.5 1838.8 921.1 1847 944.4C1847.7 945.5 1848.7 946.3 1850.2 945.9 1851.1 945.5 1851.9 944 1851.5 943.1L1842.1 917.2 1848.5 909.7 1874.3 914.3 1877.5 924.3 1860.4 944.5C1859.5 945.5 1859.6 946.7 1860.6 947.5 1861.6 948.3 1863.1 948.5 1864 947.5L1879.4 929.3 1883.7 940.8 1876.2 949.6C1875.4 950.5 1875.5 951.7 1876.5 952.6 1877.4 953.4 1878.6 953.3 1879.5 952.3L1885.3 945.5 1890 959C1890.4 959.9 1892 960.7 1892.8 960.3 1894 959.6 1894.8 958.7 1894.1 957.5L1889.3 943.4 1899.5 945.3C1900.7 945.2 1901.8 944.5 1902.1 943.5 1902.3 942.6 1901.9 941.7 1901.3 941.2 1901.3 941.2 1900.9 940.9 1900.3 941L1887.4 938.4 1883.2 926.9 1908.6 931.2C1909.9 931.7 1911 931 1911.2 929.5 1911.2 928.9 1911.1 928.3 1910.5 927.7 1910.1 927.4 1909.8 927.2 1909.5 926.9L1881.6 922.2 1878.4 912.8 1895.2 892.9 1906.3 895.1 1915.3 920.1C1915.7 921.5 1917 922 1918.1 921.3 1919.3 921.3 1919.8 920 1919.4 918.5L1911.2 895.9 1923.5 897.9 1927.4 909.1C1927.8 910 1929.1 910.5 1930.3 910.4 1931.4 909.7 1932.2 908.7 1931.5 907.5L1928.7 899 1941.9 901.3C1943.2 901.8 1944 900.8 1944.5 899.5 1944.5 898.9 1944.1 898.1 1943.4 897.5 1943.4 897.5 1943.1 897.2 1942.8 897L1928.7 894.5 1935.6 886.3C1936.1 885.7 1936.3 884.2 1935.3 883.3 1934.4 882.5 1932.9 882.9 1932.3 883.6L1923.8 893.7 1911.5 891.6 1928.3 871.8C1929.2 870.8 1928.7 869.3 1927.8 868.5S1925.6 867.8 1924.8 868.7L1906.3 890.5 1896.1 888.6 1887.4 863.9 1894.6 855.4 1921.7 860.5C1922.9 860.4 1924 859.7 1924.5 858.5 1924.5 857.9 1924.1 857 1923.5 856.4 1923.1 856.2 1922.8 855.9 1922.2 855.9L1897.9 851.5 1906 842.1 1918.2 844.2C1919.2 844.4 1920.3 843.7 1920.8 842.4 1920.7 841.2 1920 840.1 1919.1 839.8L1909.3 838.2 1918.1 827.8C1918.7 827.2 1918.5 825.4 1917.9 824.8 1916.9 824 1915.1 824.1 1914.5 824.8L1905.7 835.2 1902.8 826C1902.5 825.8 1902.2 825.5 1901.9 825.2 1901.2 824.6 1900.3 824.4 1899.7 824.5 1898.5 825.2 1898 826.4 1898.1 827.6L1902.4 839.1 1894.4 848.5 1886.1 825.3C1885.7 823.8 1884.5 823.3 1883.6 823.7 1882.1 824.1 1881.6 825.3 1881.7 826.5L1891.1 852.4 1883.9 860.9 1858.1 856.3 1854.6 846.6 1873.1 824.8C1873.9 823.8 1873.8 822.6 1872.8 821.8 1871.9 821 1870.7 821.1 1869.8 822L1853 841.9 1849 830.1 1857.6 820C1858.1 819.4 1858 817.6 1857 816.7 1856 815.9 1854.5 816.3 1854 817L1847.1 825.1 1842.3 811.6C1842 811.3 1842 811.3 1841.7 811 1841 810.5 1840.1 810.2 1839.5 810.3 1838.4 811 1837.9 812.2 1838.2 813.1ZM1880.6 864.8L1883.3 865.4 1884.1 867.8 1891.2 887.8 1892 890.2 1890.3 892.1 1876.8 908 1875.1 910 1872.7 909.6 1851.8 905.8 1849.3 905.4 1848.2 902.8 1841.5 883.1 1840.4 880.4 1842 878.5 1855.6 862.5 1857.2 860.6 1860 861.3 1880.6 864.8Z" fill="rgba(255, 255, 255, 1)"></path><path d="M394.7 76.2L428.2 87.5 432.7 96.2 420.7 114.3 410.7 113.9 387.4 87.2C387.1 87 387.1 87 386.7 86.7 386 86.3 385.1 86.1 384 87 383.3 88 383.2 89 384 90.1L404.5 113.3 389.2 112.4 380 102.3C380 102.3 379.7 102 379.7 102 379 101.5 378 101.4 377 102.3 376.1 102.7 376.1 104.3 377 105.3L382.7 112.2 371.4 111.4C370.5 111.3 369.4 112.1 369.1 113.4S370.1 115.7 371.5 116L382.3 116.6 375.9 122.5C374.8 123.3 374.8 124.9 375.6 125.9 376.3 126.4 377.6 126.8 378.7 125.9L388.9 116.8 404.5 117.9 381.2 138.3C380.2 139.2 380.2 140.7 380.7 141.5 381.7 142.2 383 142.6 384.1 141.8L410.4 118.2 420.7 118.9 430.1 137.9 424.5 146.5 389.9 153.8C388.7 154.1 388 155.1 388.3 156.3S389.6 158.2 390.8 158L421.2 151.5 412.4 164.6 399.4 167.3C398.3 167.5 397.6 168.6 397.6 170.1S398.9 172 400 171.8L409.2 169.6 402.8 179.2C402.1 180.3 402.7 181.7 403.8 182.4 404.8 183.1 406 182.9 406.7 181.8L413.1 172.2 414.9 181.1C414.9 182.6 415.9 183.3 417.4 182.7 418.5 182.5 419.3 181.4 419 180.2L416.4 167.2 425.1 154 431 184.6C431.2 185.7 432.6 186.7 433.8 186.4S435.7 185.1 435.5 183.9L428.4 149.1 434 140.5 455.6 142 459.9 151 448.5 184.4C448.1 185.7 449 186.7 450 187.4 451.3 187.8 452.4 187 453.1 185.9L462.8 156.5 469.6 170.2 465.2 183.1C464.8 184.4 465.7 185.5 466.7 186.2 467.7 186.3 469.1 185.7 469.4 184.4L472.4 176.1 477.5 186.2C478 187 479.3 187.3 480.5 187.1 481.5 186.3 481.9 185 481.4 184.1L476.3 174.1 485.1 176.9C486.1 177 487.5 176.4 487.6 175.5 488.3 174.4 487.9 173.6 486.8 172.9 486.8 172.9 486.4 172.6 486.4 172.6L473.5 168.2 466.7 154.5 496.1 164.2C497.4 164.6 498.6 164.3 498.9 163 499.3 161.7 498.8 160.9 498.1 160.4 497.8 160.2 497.8 160.2 497.8 160.2L463.8 148.9 459.5 140 471.5 121.8 481.2 122.6 505.1 149.2C505.5 150 507.1 150 507.9 149.5 509 148.7 508.9 147.1 508.1 146.1L487.7 122.8 503 123.7 512.1 133.9C512.9 134.9 514.2 135.3 514.9 134.2 516 133.4 516 131.8 515.5 131L509.2 124.3 520.5 125.1C521.7 124.8 522.7 124 523.1 122.7 522.9 122.1 522.5 121.3 521.8 120.8 521.4 120.6 521.4 120.6 520.8 120.7L509.6 119.9 516.3 113.6C517.4 112.8 517.1 111.6 516.6 110.8 516.3 110.5 516.3 110.5 515.9 110.3 515.2 109.8 514.3 109.7 513.4 110.2L503.3 119.3 488 118.4 511.3 98C512 96.9 512.3 95.6 511.3 94.9 511.1 94.3 511.1 94.3 510.8 94.1 510.1 93.6 508.9 93.9 508.1 94.4L481.5 118.2 471.8 117.4 462 98.2 467.5 90 502.3 82.9C503.5 82.7 504.5 81.2 504.2 80S502.6 77.9 501.4 78.2L471 84.7 479.5 71.8 492.7 68.8C493.9 68.6 494.6 67.5 494.3 66.4 494.1 65.2 493 64.5 491.9 64.7L483 66.5 489.3 56.9C489.8 56.2 489.8 54.7 488.7 53.9 487.7 53.2 485.9 53.6 485.4 54.3L479.1 63.9 477.3 55.1C477.1 54.5 477 53.9 476.7 53.6 476 53.2 475.4 53.3 474.8 53.4 473.6 53.6 472.9 54.7 473.1 55.9L475.5 69.3 467.1 82.1 461.2 51.6C461 51 460.7 50.7 460 50.3 459.6 50 459.3 49.8 458.7 49.9 457.5 50.2 456.5 51.6 456.8 52.8L463.5 87.4 458.1 95.6 436.9 94.4 432.1 85.5 443.6 51.7C443.8 50.8 443.5 49.6 442.8 49.1 442.5 48.9 442.5 48.9 442.2 49.3 441.2 48.6 439.7 49.1 439.4 50.5L429.7 79.8 422.5 65.9 427 53C427.1 52 426.6 51.2 425.9 50.7 425.9 50.7 425.5 50.5 425.5 50.5 424.5 49.8 423.1 50.4 422.7 51.7L419.9 60.6 414.8 50.5C414.7 49.9 414.3 49.7 413.9 49.5 413.2 49 412.3 48.9 412 49.2 410.6 49.8 410.3 51.1 410.5 52.3L415.6 62.4 407.3 59.4C406 59.1 404.6 59.7 404.3 61 404.2 61.9 404.8 63.4 405.7 63.5L418.6 67.9 425.4 81.6 396 71.9C394.7 71.6 393.7 72.4 393 73.5 392.8 74.4 393.4 75.8 394.7 76.2ZM426 114.8L435.2 100.9 436.6 98.7 439.1 98.9 455.3 99.9 458.1 100.2 459.2 102.5 466.5 117 467.6 119.2 466.1 121.4 457 135.2 455.5 137.4 453.1 137.3 436.8 136.3 434.4 136.1 432.9 133.7 425.7 119.1 424.6 116.9 426 114.8Z" fill="rgba(255, 255, 255, 1)"></path><path d="M766.8 59.6L782.6 89.7 778.7 101.5 773.4 91.3C773.1 90.1 771.7 89.9 770.5 90.2 769.8 90.8 769.2 92.2 769.8 93L776.9 107.2 773.3 118.9 765.2 109.7 766 93.8C766 93.8 766 93.4 766 93.4 765.8 92.6 764.8 91.9 763.8 91.7 762.6 92 761.8 92.6 761.7 93.9L761.2 105.4 753 96.2 754.3 62.3C754.3 62.3 754.6 61.8 754.6 61.8 754.4 61 753.4 60.3 752.5 60.1 751.2 60 750.1 61.1 750.4 62.3L749 91.9 738.8 81 739.3 67.8C739.3 67.8 739.3 67.8 739.3 67.4 739.1 66.6 738.5 65.8 737.5 65.6 736.3 65.9 735.1 66.5 735 67.9L734.7 76.7 727.3 68.7C726.6 67.5 725.4 67.8 724.6 68.4 723.5 69.1 723.3 70.5 724.4 71.5L731.5 79.6 723 78.8C721.7 79.1 720.6 79.8 720.9 81.1 720.7 82.4 721.3 83.1 722.7 83.3L735.9 83.9 745.7 94.8 715.7 93.5C714.8 93.3 713.8 94.4 713.6 95.8 713.8 96.6 714.5 97.7 715.8 97.9L749.7 99.1 757.9 108.3 746.4 107.8C745.1 107.6 744.4 108.6 744.3 110 744 110.9 745.1 112 746.1 112.2L761.9 112.6 770.4 121.7 758.4 124.3 745.1 115.9C744.1 115.2 742.9 115.5 742.2 116.5 741.5 117.1 741.8 118.8 742.9 119.5L752.5 125.6 740.4 128.3 711.9 109.7C710.9 109 709.6 109.3 709 110.3 708.3 111.3 708.6 112.6 709.6 113.2L734.6 129.6 720.4 132.7 709.3 125.6C708.2 124.9 707 125.2 706.3 126.2 705.7 127.2 706 128.5 707 129.1L714.2 134.1 703.8 136.4C702.5 136.6 701.9 137.7 702.2 138.9 702.4 140.2 703.4 140.8 704.7 140.5L715.1 138.2 710.6 145.4C709.9 146.4 710.2 147.6 711.2 148.3S713.5 148.7 714.1 147.6L720.9 137 735.5 133.7 719.6 158.7C719 159.7 719.2 160.9 720.3 161.6 721.3 162.2 722.5 161.9 723.2 160.9L741.4 132.5 753.4 129.8 747.3 139.5C746.6 140.5 746.9 141.7 747.9 142.4 748.9 143 750.2 142.7 750.8 141.7L759.3 128.5 770.9 125.9 767.3 137.2 753.2 144.7C752.5 145.3 751.9 146.7 752.5 147.5 753.2 148.6 754.2 148.9 755.4 148.6L765.6 143.3 762 154.6 731.8 170.4C730.6 171.1 730.4 172 730.7 173.3 731.4 174.4 732.7 174.6 733.6 174.4L760.2 160.6 755.5 174.8 744.1 180.8C742.9 181.1 742.8 182.4 743 183.6 743.6 184.4 745.1 184.9 746.2 184.2L753.7 180.4 750.7 190.7C750.1 191.7 750.7 192.9 752.2 193.4 753.1 193.7 754.3 193 754.5 192L757.9 181.7 761.8 189.6C762.5 190.7 763.8 190.9 764.6 190.3 765.8 190 766.1 189 765.9 188.2 765.8 187.8 765.8 187.8 765.7 187.4L759.7 176 764.4 161.9 778.1 188.1C778.4 189.4 779.7 189.5 781 189.3 781.7 188.7 781.9 187.7 781.8 186.9 781.7 186.5 781.7 186.5 781.7 186.5L766.2 155.8 769.8 144.5 775.1 154.7C775.8 155.9 776.7 156.1 778 155.8 778.7 155.2 779.4 154.2 779.2 153.4 779.1 153 779.1 153 779 152.6L771.5 138.5 775.2 127.2 783.2 135.9 782.7 151.7C782.6 153.1 783.7 154.1 784.6 154.4 785.9 154.1 787 153.4 786.8 152.2L787.3 140.7 795.8 149.3 794.2 183.7C793.9 184.7 795 185.7 796 186 797.2 185.7 798.4 185 798.5 183.6L799.9 154.1 809.7 165 809 177.8C808.9 179.2 810 180.2 811.3 180 812.2 180.2 813.3 179.5 813.5 178.2L813.7 169.4 821.2 177.3C821.8 178.1 823.1 178.2 824.3 177.5 824.6 177 824.8 176.1 824.6 175.3 824.6 175.3 824.5 174.9 824.5 174.4L817 166.5 825.8 166.7C826.7 166.9 827.8 165.8 828 164.9 827.9 164.5 827.9 164.5 827.9 164.5 827.7 163.2 826.6 162.6 825.8 162.8L813 162.1 802.7 151.3 832.7 152.5C834 152.2 834.7 151.6 834.9 150.3 834.9 150.3 834.8 149.9 834.8 149.9 834.6 149 834 148.3 832.6 148.2L798.6 146.5 790.6 137.8 802.1 138.3C803.3 138 804.5 137.3 804.2 136.1 804.6 136 804.5 135.6 804.5 135.6 804.3 134.7 803.3 134.1 802.4 133.9L786.6 133.4 778.4 124.3 790.1 121.7 803.3 130.2C804.3 130.8 806 130.4 806.7 129.4 806.9 128.5 806.6 127.2 806 126.5L795.9 120.4 808 117.8 836.5 136C837.5 136.6 838.8 136.3 839.4 135.3 840.1 134.3 839.8 133 838.8 132.4L813.9 116.5 828.4 113.3 839.1 120.1C840.1 120.7 841.4 120.5 842 119.4S842.4 117.2 841.4 116.5L834.3 112 844.7 109.7C845.9 109.4 846.6 108.4 846.3 107.1 846 105.9 845 105.2 843.8 105.5L833.4 107.8 837.8 100.3C838.1 99.8 838.5 99.3 838.4 98.8 838.3 98.4 837.7 97.7 837.2 97.4 836.2 96.7 834.9 97 834.3 98L827.5 109.1 812.9 112.3 828.8 87C829.1 86.5 829.4 86 829.3 85.5 829.2 85.1 828.6 84.4 828.1 84.1 827.1 83.4 825.9 83.7 825.2 84.7L807.1 113.6 795 116.3 801.6 106.5C801.9 106 801.8 105.2 801.7 104.7 801.6 104.3 801.5 103.9 801 103.6 800 102.9 798.3 103.3 798.1 104.2L789.2 117.5 777.5 120.1 781.1 108.4 795.2 101.4C796 100.8 796.6 99.7 796.4 98.9 796.4 98.5 796.4 98.5 795.9 98.6 795.7 97.3 794.2 96.8 793.1 97.5L782.9 102.8 786.4 91.1 817.1 75.6C817.8 75 818.1 74 817.9 73.2 817.8 72.8 817.8 72.8 817.8 72.8 817.1 71.6 816.1 71 814.9 71.7L788.2 85.4 793 71.3 804.3 65.3C805.5 64.6 805.7 63.7 805.5 62.8 805.5 62.8 805.4 62.4 805.4 62.4 804.7 61.2 803.4 61.1 802.6 61.3L794.8 65.6 798.2 55.3C798.1 54.9 798 54.4 797.9 54 797.8 53.6 797.2 52.9 796.7 52.5 795.4 52.4 794.1 52.7 794 54L790.6 64.4 786.7 56.5C786 55.3 784.6 55.2 783.8 55.4 782.6 56.1 782.5 57.4 782.8 58.7L788.8 70 784.4 84.1 770.8 57.8C770.1 56.7 768.7 56.1 767.9 56.7 766.8 57.4 766.1 58.4 766.8 59.6Z" fill="rgba(255, 255, 255, 1)"></path><path d="M1019.5 989.3L1081.9 956.3 1100.7 961.6 1110.6 1004 1096.3 1017.8 1025.5 1015.1C1024.7 1015.3 1024.7 1015.3 1023.9 1015.5 1022.2 1015.8 1020.7 1017.1 1020.5 1019.7 1021.1 1022.2 1022.3 1023.7 1025 1024L1086.8 1026.2 1064.6 1047.1 1037.3 1046.5C1037.3 1046.5 1036.4 1046.7 1036.4 1046.7 1034.8 1047.1 1033.3 1048.3 1033.1 1051 1032.6 1052.8 1034.9 1054.9 1037.5 1055.2L1055.3 1056.3 1038.7 1071.6C1037.3 1072.8 1037 1075.5 1038.4 1077.8S1043.2 1079.3 1045.5 1077.9L1061.2 1062.8 1061 1080.4C1060.7 1083.1 1062.9 1085.2 1065.6 1085.4 1067.3 1085 1069.6 1083.6 1069.8 1080.9L1070.5 1053.6 1093.6 1032.5 1091.4 1094.3C1091.1 1097 1093.4 1099.1 1095.2 1099.6 1097.7 1099 1100 1097.6 1100.3 1094.9L1102.2 1024.3 1117.3 1010.3 1157.9 1022.7 1162.5 1042.6 1125.8 1102.9C1124.5 1105 1125.1 1107.5 1127.2 1108.7S1131.7 1109.4 1133 1107.4L1165.3 1054.3 1172.4 1085 1158.4 1107.6C1157.2 1109.6 1157.7 1112.1 1160 1114.2S1164.5 1114.9 1165.8 1112.9L1175.2 1096.7 1180.4 1119.1C1181 1121.6 1183.9 1122.7 1186.4 1122.1 1188.9 1121.5 1190.1 1119.4 1189.5 1117L1184.3 1094.5 1199.7 1104.1C1201.9 1106.2 1204.4 1105.6 1205.5 1102.7 1206.8 1100.7 1206.2 1098.2 1204.1 1096.9L1181.6 1082.9 1174.4 1052.1 1226.9 1085.4C1228.9 1086.7 1232.3 1085.9 1233.5 1083.9S1234.2 1079.4 1232.2 1078.1L1171.7 1040.5 1167 1020.6 1198.7 991.2 1217.7 997.3 1250.7 1059.7C1252.1 1062 1254.8 1062.3 1257.3 1061.7 1259.6 1060.3 1259.8 1057.6 1259.2 1055.1L1229.8 1000.6 1259.1 1009.6 1271.8 1033.8C1273.2 1036.1 1275.9 1036.3 1278.4 1035.7 1279.8 1034.5 1280.9 1031.6 1279.5 1029.3L1271.5 1013.7 1293.1 1020C1294.9 1020.5 1297.2 1019.1 1298.5 1017 1298.8 1014.3 1297.4 1012 1295.5 1011.6L1273.9 1005.2 1290.2 996.2C1291.6 995 1292.7 992.1 1291.5 990.6 1290.9 988.1 1289 987.7 1286.5 988.3 1286.5 988.3 1285.7 988.5 1285.7 988.5L1261.5 1001.1 1232.3 992.2 1286.7 962.8C1289 961.4 1290.3 959.3 1288.9 957 1287.5 954.7 1285.6 954.3 1284 954.7 1283.1 954.9 1283.1 954.9 1283.1 954.9L1220.1 988.9 1201.1 982.8 1191.2 940.4 1205.7 927.4 1277.1 929.1C1279 929.6 1281.1 927.3 1281.5 925.5 1281.8 922.8 1279.5 920.7 1276.8 920.4L1215 918.2 1237.2 897.2 1264.6 897.9C1267.2 898.1 1269.5 896.7 1269 894.2 1269.2 891.5 1267 889.4 1265.1 889L1246.7 888.9 1263.3 873.6C1264.5 871.6 1264.8 868.9 1263.4 866.6 1262.4 866 1260.5 865.5 1258.8 865.9 1258 866.1 1258 866.1 1257.4 867.1L1240.8 882.4 1240.9 864C1241.1 861.3 1239.1 860 1237.2 859.6 1236.4 859.8 1236.4 859.8 1235.5 860 1233.9 860.4 1232.4 861.6 1232 863.4L1231.3 890.7 1209.1 911.7 1211.3 849.9C1210.7 847.4 1209.3 845.1 1206.8 845.7 1205.8 845 1205.8 845 1204.9 845.2 1203.3 845.6 1202 847.6 1201.6 849.5L1199.8 920.9 1185.3 933.9 1143.9 921.7 1139.5 902.6 1177 842.1C1178.3 840 1177.5 836.7 1175.5 835.4S1170.1 834.9 1168.8 837L1136.6 890.1 1129.6 860.2 1143.4 836.8C1144.7 834.8 1144.1 832.3 1142 831 1140 829.7 1137.5 830.3 1136.2 832.3L1126.6 847.7 1121.4 825.3C1121 823.6 1118.8 821.5 1116.3 822.1 1113.8 822.7 1111.9 825.8 1112.3 827.4L1117.5 849.9 1102.1 840.3C1101.1 839.7 1100.1 839 1099.3 839.2 1097.6 839.6 1097 840.6 1096.3 841.7 1095 843.7 1095.6 846.2 1097.7 847.5L1120.4 862.3 1127.4 892.2 1074.9 858.9C1073.9 858.3 1073.1 858.5 1071.4 858.9 1070.6 859.1 1069.8 859.3 1069.1 860.3 1067.8 862.3 1068.6 865.7 1070.7 866.9L1130.3 904.7 1134.8 923.8 1103.9 952.9 1084.3 947.9 1051.1 884.6C1049.9 883.2 1047.9 881.9 1046.2 882.3 1045.4 882.5 1045.4 882.5 1045.6 883.3 1043.1 883.9 1042 886.8 1043.4 889.1L1072.8 943.6 1042.7 934.8 1030 910.6C1028.8 909.1 1027 908.7 1025.3 909.1 1025.3 909.1 1024.5 909.3 1024.5 909.3 1022 909.9 1020.9 912.7 1022.3 915L1031.4 931.3 1009.7 925C1008.7 924.3 1007.9 924.5 1007.1 924.7 1005.4 925.1 1003.9 926.3 1004.1 927.2 1003 930.1 1004.5 932.4 1006.5 933.6L1028.1 940 1012.5 948C1010.2 949.4 1009.1 952.3 1010.5 954.6 1011.8 956.1 1014.6 957.1 1016.1 955.9L1040.3 943.3 1069.6 952.2 1015.1 981.6C1012.8 983 1012.5 985.7 1013.1 988.2 1014.3 989.6 1017.2 990.7 1019.5 989.3ZM1118.5 996.8L1111 964.4 1109.8 959.4 1113.4 956 1137.1 933.8 1141.5 930.1 1146.3 931.7 1177.4 941 1182.1 942.6 1183.3 947.5 1190.8 979.9 1192 984.9 1188.4 988.4 1164.7 1010.6 1161.1 1014.1 1155.6 1012.7 1124.4 1003.3 1119.7 1001.8 1118.5 996.8Z" fill="rgba(255, 255, 255, 1)"></path><path d="M1610.9 559.4L1590.2 588.1 1559 592.9 1570.4 563.5 1602.9 549.4C1602.9 549.4 1603.2 549.2 1603.2 549.2 1603.9 548.6 1604 547.4 1603.8 546.5 1603.3 545.2 1601.9 544.8 1600.9 545.6L1572.5 558 1578 543.7 1590.5 538.1C1590.5 538.1 1590.8 537.8 1590.8 537.8 1591.5 537.3 1591.6 536.1 1591.4 535.1 1590.9 533.9 1589.5 533.4 1588.5 534.2L1579.9 537.8 1584.1 527.4C1584.4 526.5 1583.7 524.9 1582.8 524.5 1581.7 523.8 1580.4 524.8 1580 525.7L1575.8 536.2 1572.2 527.6C1571.7 526.3 1570.3 525.9 1569.3 526.7 1568 527.1 1567.5 528.6 1568.3 529.6L1574 542 1568.2 556 1555.8 527.6C1555.3 526.4 1553.9 525.9 1552.9 526.7 1551.6 527.2 1551.1 528.6 1551.9 529.6L1566 562.1 1554.6 591.5 1534.6 566.6 1538.4 531.2C1538.5 530 1537.7 529 1536.5 528.9 1535.3 528.7 1534.3 529.5 1534.2 530.7L1530.8 561.9 1521.2 550 1522.6 536.8C1522.8 535.6 1522 534.6 1520.8 534.4 1519.6 534.3 1518.6 535.1 1518.4 536.3L1517.5 545.3 1510 536C1509.5 534.7 1508 534.9 1507 535.7 1506 536.5 1505.8 537.7 1506.6 538.7L1513.6 547.3 1504.6 546.3C1503.4 546.2 1502.4 547 1502.3 548.2S1502.9 550.4 1504.1 550.5L1517.3 552 1527 563.9 1495.8 560.5C1494.6 560.4 1493.6 561.2 1493.4 562.4 1493.3 563.6 1494.1 564.6 1495.3 564.7L1530.7 568.6 1550.5 593.2 1519.3 598 1491.5 577.7C1490.3 576.9 1489.1 577.4 1488.1 578.2 1487.3 579.3 1487.8 580.6 1488.6 581.6L1513.6 599.8 1498.5 602.1 1487.6 593.9C1486.4 593.2 1485.2 593.7 1484.2 594.5 1483.4 595.6 1483.9 596.9 1484.4 597.5L1492.1 602.9 1480.9 604.7C1480 604.9 1478.7 606 1479.1 607.3 1479.6 608.5 1480.4 609.5 1481.7 609.1L1492.8 607.2 1487.4 614.9C1486.7 616 1487.2 617.3 1487.7 617.9 1488.6 618.3 1489.8 618.5 1490.4 617.9 1490.4 617.9 1490.8 617.6 1490.8 617.6L1498.9 606.7 1514 604.4 1495.8 629.4C1495.1 630.6 1495.6 631.8 1496.1 632.5 1497 632.9 1498.2 633 1498.8 632.5 1498.8 632.5 1499.2 632.2 1499.2 632.2L1519.9 603.5 1551.1 598.7 1539.7 628.1 1507.2 642.2C1505.9 642.7 1505.5 644.1 1506.3 645.1 1506.7 646.4 1508.2 646.9 1509.2 646.1L1537.6 633.7 1532.1 647.9 1519.6 653.6C1518.3 654 1517.9 655.5 1518.7 656.5 1519.2 657.8 1520.6 658.2 1521.6 657.4L1530.2 653.8 1526 664.3C1525.6 665.2 1526.4 666.8 1527.2 667.1 1528.1 667.5 1529 667.3 1529.7 666.8 1530 666.5 1530.4 666.3 1530.4 665.7L1534.6 655.2 1538.2 663.8C1538.7 665.1 1540.2 665.5 1541.2 664.7 1541.2 664.7 1541.5 664.5 1541.5 664.5 1542.2 663.9 1542.3 662.7 1542.1 661.8L1536.5 649.3 1542 635.1 1554.4 663.4C1554.8 664.7 1556.3 665.2 1557.3 664.4 1557.3 664.4 1557.6 664.1 1557.6 664.1 1558.3 663.6 1558.4 662.4 1558.2 661.4L1544.2 628.9 1555.5 599.5 1575.3 624.1 1571.5 659.5C1571.3 660.7 1572.1 661.7 1573.3 661.9 1574.5 662 1575.5 661.2 1575.7 660L1579.3 629.1 1589 641.1 1587.5 654.3C1587.4 655.5 1588.2 656.5 1589.4 656.6S1591.6 656 1591.7 654.8L1592.7 645.8 1599.6 654.4C1600.4 655.4 1601.6 655.5 1602.6 654.7 1603.6 653.9 1603.8 652.7 1603 651.7L1596 643.1 1605 644.1C1605.6 644.1 1606.2 644.2 1606.9 643.7S1607.6 642.5 1607.7 641.9C1607.8 640.7 1607 639.7 1605.8 639.6L1592.6 638.2 1583 626.2 1614.2 629.6C1614.8 629.6 1615.4 629.7 1616 629.2 1616.4 628.9 1616.8 628 1616.8 627.4 1617 626.2 1616.2 625.2 1615 625.1L1579.6 621.3 1559.8 596.6 1591 591.9 1619.7 612.6C1620.5 613 1621.7 613.1 1622.4 612.6 1622.4 612.6 1622.7 612.3 1622.7 612.3 1623.5 611.2 1623 609.9 1622.5 609.2L1597.4 591 1612.6 588.7 1623.5 596.9C1624.4 597.3 1625.6 597.4 1626.2 596.9 1626.2 596.9 1626.6 596.6 1626.6 596.6 1627.3 595.5 1626.8 594.2 1626.3 593.6L1618.7 588.2 1629.8 586.4C1630.2 586.1 1630.8 586.2 1631.1 585.9 1631.7 585.4 1632.1 584.5 1631.9 583.6 1631.5 582.3 1630.7 581.3 1629.4 581.8L1618.3 583.6 1623.7 576C1624.4 574.9 1623.9 573.6 1623.4 572.9 1622.3 572.2 1621 572.7 1620.3 573.2L1612.2 584.1 1597 586.4 1615.2 561.4C1616 560.3 1615.5 559 1615 558.4 1613.2 558.2 1611.6 558.3 1610.9 559.4Z" fill="rgba(255, 255, 255, 1)"></path><path d="M135.6 110.5L166.5 124.7 170.6 136.5 160.2 131.7C159.2 130.8 158 131.5 157.2 132.5 157 133.5 157.4 134.9 158.4 135.2L172.6 142.1 176.9 153.5 164.9 151.2 155.9 138.1C155.9 138.1 155.6 137.8 155.6 137.8 154.9 137.3 153.7 137.4 152.8 137.8 152 138.7 151.8 139.7 152.5 140.8L159.1 150.2 147.1 148 127.4 120.3C127.4 120.3 127.3 119.7 127.3 119.7 126.7 119.2 125.5 119.3 124.6 119.6 123.4 120.4 123.3 121.9 124.2 122.7L141.2 147 126.5 144.6 118.9 133.8C118.9 133.8 118.9 133.8 118.5 133.5 117.9 133 116.9 132.7 116.1 133.1 115.3 134.1 114.8 135.3 115.5 136.5L120.6 143.6 109.9 141.8C108.6 141.3 107.8 142.3 107.6 143.2 107.1 144.5 107.8 145.7 109.3 145.8L119.8 147.9 112.6 152.5C111.8 153.5 111.3 154.7 112.3 155.6 113 156.7 113.9 156.9 115.1 156.2L125.9 148.6 140.4 151.3 115.9 168.6C115 168.9 114.8 170.5 115.5 171.6 116.2 172.2 117.4 172.7 118.6 172L146.2 152.3 158.2 154.5 148.8 161.1C147.7 161.8 147.8 163 148.5 164.2 148.9 165.1 150.4 165.2 151.3 164.8L164.1 155.5 176.4 157.5 168.4 167 152.8 168.3C151.6 168.5 150.8 169.4 150.9 170.6 150.6 171.6 152 172.7 153.2 172.6L164.6 171.6 156.6 181 122.6 183.7C121.4 183.8 120.6 184.8 120.7 186 120.8 187.2 121.8 188 123 187.9L152.8 185.6 143.5 196.7 130.2 197.9C129 198 128.2 199 128.3 200.2 128.4 201.4 129.4 202.2 130.6 202.1L139.4 201.6 132.5 209.8C131.7 210.8 131.8 212 132.8 212.8 133.7 213.6 134.9 213.5 135.8 212.5L142.6 204.4 143.4 212.8C143.5 214 144.5 214.8 145.7 214.7S147.7 213.6 147.6 212.4L146.5 199.8 156.1 188.4 158.6 217.8C158.8 219 159.7 219.8 160.9 219.7 162.1 219.6 163 218.6 162.9 217.4L159.9 183.8 167.8 174.3 168.8 185.7C169 186.9 169.9 187.7 171.1 187.6 172.3 187.5 173.2 186.5 173.1 185.3L171.7 169.7 179.4 160.6 183.4 171.7 176.8 186.2C176.5 187.2 177 188.6 177.9 188.9 179.2 189.4 180 189 180.9 188L185.7 177.6 189.7 188.7 175.5 219.7C175 220.9 175.4 221.8 176.3 222.6 177.6 223.1 178.7 222.4 179.3 221.7L192 194.6 196.9 208.7 191.6 220.4C190.8 221.3 191.5 222.5 192.4 223.3 193.4 223.5 194.8 223.1 195.3 221.9L198.9 214.3 202.8 224.2C202.9 225.4 204.2 225.9 205.7 225.5 206.5 225.1 207 223.9 206.6 223L203 212.7 210.9 216.5C212.2 217 213.3 216.3 213.6 215.4 214.4 214.4 214 213.6 213.3 213 213 212.7 213 212.7 212.7 212.5L201 207.1 196.1 193 223 205.5C224 206.3 225.1 205.6 225.9 204.6 226.2 203.7 225.8 202.8 225.1 202.3 224.8 202 224.8 202 224.8 202L193.8 187.2 189.8 176 200.2 180.8C201.5 181.3 202.4 181 203.2 180 203.4 179 203.3 177.8 202.6 177.3 202.3 177 202.3 177 202 176.7L187.5 170.1 183.5 159 195.1 161 204.4 173.8C205.2 175 206.7 175.1 207.6 174.7 208.4 173.8 208.9 172.5 207.9 171.7L201.3 162.3 213.3 163.9 233 192.2C233.4 193.1 234.9 193.2 235.8 192.9 236.6 191.9 237.1 190.6 236.4 189.5L219.4 165.2 233.9 167.9 241.2 178.5C241.9 179.6 243.4 179.8 244.3 178.8 245.1 178.4 245.6 177.2 244.9 176L239.8 168.9 250.5 170.7C251.4 170.9 252.6 170.2 253.1 168.9 253 168.3 252.7 167.5 252 166.9 252 166.9 251.7 166.6 251.3 166.4L240.6 164.6 247.7 159.4C248.6 159 248.7 157.5 248.4 156.6 248 156.3 248 156.3 248 156.3 247.1 155.5 245.9 155.6 245.3 156.3L234.7 163.6 220 161.2 244.5 143.9C245.4 143 245.6 142 244.9 140.9 244.9 140.9 244.5 140.6 244.5 140.6 243.9 140.1 243 139.8 241.8 140.5L213.8 160 202.1 158 211.6 151.4C212.4 150.4 212.9 149.1 211.9 148.3 212.2 148 211.8 147.7 211.8 147.7 211.2 147.2 210 147.3 209.1 147.7L196.3 157 184.3 154.7 192 145.5 207.6 144.2C208.8 144 209.9 142.7 209.8 141.5 209.4 140.7 208.4 139.8 207.5 139.6L195.8 140.9 203.8 131.5 237.4 128.5C238.6 128.4 239.4 127.4 239.3 126.2 239.2 125 238.3 124.2 237.1 124.3L207.6 126.9 217.2 115.4 229.8 114.3C231 114.2 231.8 113.3 231.7 112S230.6 110 229.4 110.1L221 110.9 227.9 102.7C228.7 101.7 228.6 100.5 227.6 99.7 226.6 98.9 225.4 99 224.6 100L217.8 108.1 216.7 99.4C216.6 98.8 216.6 98.2 216.3 98 215.9 97.7 215 97.5 214.4 97.5 213.2 97.6 212.4 98.6 212.5 99.8L213.9 112.7 204.3 124.1 201.4 94.4C201.4 93.8 201.3 93.2 201 92.9 200.7 92.7 199.7 92.4 199.1 92.5 197.9 92.6 197.1 93.6 197.2 94.8L200.5 128.7 192.5 138.2 191.8 126.5C191.8 125.9 191.1 125.3 190.8 125 190.5 124.8 190.1 124.5 189.5 124.5 188.3 124.6 187.2 126 187.6 126.8L188.7 142.8 181 151.9 176.7 140.5 183.6 126.3C183.8 125.3 183.7 124.1 183.1 123.6 182.8 123.3 182.8 123.3 182.5 123.6 181.5 122.8 180 123.3 179.5 124.5L174.7 134.9 170.4 123.5 185.2 92.5C185.4 91.6 185 90.7 184.4 90.2 184.1 89.9 184.1 89.9 184.1 89.9 182.8 89.4 181.6 89.5 181.1 90.8L168.3 117.9 163.5 103.8 168.8 92.1C169.3 90.9 168.9 90 168.3 89.5 168.3 89.5 167.9 89.2 167.9 89.2 166.7 88.7 165.5 89.4 165 90L161.5 98.2 157.8 88C157.5 87.7 157.2 87.4 156.9 87.1 156.5 86.9 155.6 86.6 155 86.7 153.9 87.4 153 88.4 153.7 89.5L157.4 99.8 149.5 96C148.2 95.5 147.1 96.2 146.5 96.8 146 98.1 146.7 99.2 147.7 100L159.4 105.4 164.5 119.2 137.7 106.7C136.4 106.2 134.9 106.6 134.7 107.5 134.2 108.8 134.3 110 135.6 110.5Z" fill="rgba(255, 255, 255, 1)"></path></g><defs><mask id="SvgjsMask1028"><rect width="1920" height="1080" fill="#ffffff"></rect></mask><filter id="SvgjsFilter1029"><feGaussianBlur stdDeviation="1"></feGaussianBlur></filter></defs></svg>